<?xml version="1.0" encoding="UTF-8" standalone="no"?>
<!DOCTYPE svg PUBLIC "-//W3C//DTD SVG 1.1//EN"
 "http://www.w3.org/Graphics/SVG/1.1/DTD/svg11.dtd">
<!-- Generated by graphviz version 14.0.4 (20251115.1723)
 -->
<!-- Pages: 1 -->
<svg width="2265pt" height="345pt"
 viewBox="0.00 0.00 2265.00 345.00" xmlns="http://www.w3.org/2000/svg" xmlns:xlink="http://www.w3.org/1999/xlink">
<g id="graph0" class="graph" transform="scale(1 1) rotate(0) translate(4 341)">
<polygon fill="white" stroke="none" points="-4,4 -4,-341 2260.93,-341 2260.93,4 -4,4"/>
<g id="clust1" class="cluster">
<title>cluster_0</title>
<polygon fill="#f5f7fa" stroke="#f5f7fa" points="187.83,-149 187.83,-261 755.08,-261 755.08,-149 187.83,-149"/>
<text xml:space="preserve" text-anchor="middle" x="471.45" y="-241.8" font-family="Times,serif" font-size="16.00" fill="#555555">🐍 Host Context (Control Plane)</text>
</g>
<g id="clust2" class="cluster">
<title>cluster_1</title>
<polygon fill="#e8f5e9" stroke="#e8f5e9" points="879.58,-137 879.58,-273 1413.08,-273 1413.08,-137 879.58,-137"/>
<text xml:space="preserve" text-anchor="middle" x="1146.33" y="-253.8" font-family="Times,serif" font-size="16.00" fill="#2e7d32">⚡ Device Context (Data Plane)</text>
</g>
<g id="clust3" class="cluster">
<title>cluster_2</title>
<polygon fill="none" stroke="#ffb74d" stroke-dasharray="5,2" points="1537.58,-81 1537.58,-329 2248.93,-329 2248.93,-81 1537.58,-81"/>
<text xml:space="preserve" text-anchor="middle" x="1893.25" y="-309.8" font-family="Times,serif" font-size="16.00" fill="#f57c00">🛡️ Validation Layer</text>
</g>
<!-- start -->
<g id="node1" class="node">
<title>start</title>
<ellipse fill="#333333" stroke="black" cx="68.41" cy="-190" rx="68.41" ry="68.41"/>
<text xml:space="preserve" text-anchor="middle" x="68.41" y="-184.2" font-family="Helvetica,sans-Serif" font-size="14.00" fill="white">Start / CLI</text>
</g>
<!-- init -->
<g id="node2" class="node">
<title>init</title>
<polygon fill="#ffffff" stroke="#333333" points="319.58,-223 195.83,-223 195.83,-157 319.58,-157 319.58,-223"/>
<text xml:space="preserve" text-anchor="middle" x="257.7" y="-191.7" font-family="Helvetica,sans-Serif" font-size="14.00">GPU Manager</text>
<text xml:space="preserve" text-anchor="middle" x="257.7" y="-176.7" font-family="Helvetica,sans-Serif" font-size="14.00">(RAII Context)</text>
</g>
<!-- start&#45;&gt;init -->
<g id="edge7" class="edge">
<title>start&#45;&gt;init</title>
<path fill="none" stroke="black" d="M137.29,-190C137.29,-190 183.96,-190 183.96,-190"/>
<polygon fill="black" stroke="black" points="183.96,-193.5 193.96,-190 183.96,-186.5 183.96,-193.5"/>
</g>
<!-- batcher -->
<g id="node3" class="node">
<title>batcher</title>
<polygon fill="#ffffff" stroke="#333333" points="533.08,-223 378.58,-223 378.58,-157 533.08,-157 533.08,-223"/>
<text xml:space="preserve" text-anchor="middle" x="455.83" y="-191.7" font-family="Helvetica,sans-Serif" font-size="14.00">Batch Generator</text>
<text xml:space="preserve" text-anchor="middle" x="455.83" y="-176.7" font-family="Helvetica,sans-Serif" font-size="14.00">(Dynamic Batching)</text>
</g>
<!-- init&#45;&gt;batcher -->
<!-- pool -->
<g id="node4" class="node">
<title>pool</title>
<polygon fill="#ffffff" stroke="#333333" points="747.08,-223 618.08,-223 618.08,-157 747.08,-157 747.08,-223"/>
<text xml:space="preserve" text-anchor="middle" x="682.58" y="-191.7" font-family="Helvetica,sans-Serif" font-size="14.00">ThreadPool</text>
<text xml:space="preserve" text-anchor="middle" x="682.58" y="-176.7" font-family="Helvetica,sans-Serif" font-size="14.00">(Task Dispatch)</text>
</g>
<!-- batcher&#45;&gt;pool -->
<g id="edge2" class="edge">
<title>batcher&#45;&gt;pool</title>
<path fill="none" stroke="black" d="M533.54,-190C533.54,-190 606.25,-190 606.25,-190"/>
<polygon fill="black" stroke="black" points="606.25,-193.5 616.25,-190 606.25,-186.5 606.25,-193.5"/>
<text xml:space="preserve" text-anchor="middle" x="575.58" y="-201.55" font-family="Helvetica,sans-Serif" font-size="11.00">Tasks</text>
</g>
<!-- vram_in -->
<g id="node5" class="node">
<title>vram_in</title>
<path fill="#ffffff" stroke="#2e7d32" d="M1019.58,-227.12C1019.58,-231.68 989.99,-235.38 953.58,-235.38 917.16,-235.38 887.58,-231.68 887.58,-227.12 887.58,-227.12 887.58,-152.88 887.58,-152.88 887.58,-148.32 917.16,-144.62 953.58,-144.62 989.99,-144.62 1019.58,-148.32 1019.58,-152.88 1019.58,-152.88 1019.58,-227.12 1019.58,-227.12"/>
<path fill="none" stroke="#2e7d32" d="M1019.58,-227.12C1019.58,-222.57 989.99,-218.88 953.58,-218.88 917.16,-218.88 887.58,-222.57 887.58,-227.12"/>
<text xml:space="preserve" text-anchor="middle" x="953.58" y="-191.7" font-family="Helvetica,sans-Serif" font-size="14.00">Pinned Memory</text>
<text xml:space="preserve" text-anchor="middle" x="953.58" y="-176.7" font-family="Helvetica,sans-Serif" font-size="14.00">(Input Buffer)</text>
</g>
<!-- pool&#45;&gt;vram_in -->
<g id="edge8" class="edge">
<title>pool&#45;&gt;vram_in</title>
<path fill="none" stroke="#333333" stroke-width="3" d="M747.49,-190C747.49,-190 872.77,-190 872.77,-190"/>
<polygon fill="#333333" stroke="#333333" stroke-width="3" points="872.77,-193.5 882.77,-190 872.77,-186.5 872.77,-193.5"/>
<text xml:space="preserve" text-anchor="middle" x="817.33" y="-191.55" font-family="Helvetica,sans-Serif" font-size="11.00"> PCIe Bus (H2D)</text>
</g>
<!-- kernel -->
<g id="node6" class="node">
<title>kernel</title>
<polygon fill="#ffffff" stroke="#2e7d32" points="1220.08,-223 1094.83,-223 1094.83,-219 1090.83,-219 1090.83,-215 1094.83,-215 1094.83,-165 1090.83,-165 1090.83,-161 1094.83,-161 1094.83,-157 1220.08,-157 1220.08,-223"/>
<polyline fill="none" stroke="#2e7d32" points="1094.83,-219 1098.83,-219 1098.83,-215 1094.83,-215"/>
<polyline fill="none" stroke="#2e7d32" points="1094.83,-165 1098.83,-165 1098.83,-161 1094.83,-161"/>
<text xml:space="preserve" text-anchor="middle" x="1157.45" y="-191.7" font-family="Helvetica,sans-Serif" font-size="14.00">CUDA Kernel</text>
<text xml:space="preserve" text-anchor="middle" x="1157.45" y="-176.7" font-family="Helvetica,sans-Serif" font-size="14.00">(Parallel Hash)</text>
</g>
<!-- vram_in&#45;&gt;kernel -->
<g id="edge3" class="edge">
<title>vram_in&#45;&gt;kernel</title>
<path fill="none" stroke="black" d="M1020.05,-190C1020.05,-190 1083.02,-190 1083.02,-190"/>
<polygon fill="black" stroke="black" points="1083.02,-193.5 1093.02,-190 1083.02,-186.5 1083.02,-193.5"/>
</g>
<!-- vram_out -->
<g id="node7" class="node">
<title>vram_out</title>
<path fill="#ffffff" stroke="#2e7d32" d="M1405.08,-227.12C1405.08,-231.68 1376.84,-235.38 1342.08,-235.38 1307.31,-235.38 1279.08,-231.68 1279.08,-227.12 1279.08,-227.12 1279.08,-152.88 1279.08,-152.88 1279.08,-148.32 1307.31,-144.62 1342.08,-144.62 1376.84,-144.62 1405.08,-148.32 1405.08,-152.88 1405.08,-152.88 1405.08,-227.12 1405.08,-227.12"/>
<path fill="none" stroke="#2e7d32" d="M1405.08,-227.12C1405.08,-222.57 1376.84,-218.88 1342.08,-218.88 1307.31,-218.88 1279.08,-222.57 1279.08,-227.12"/>
<text xml:space="preserve" text-anchor="middle" x="1342.08" y="-191.7" font-family="Helvetica,sans-Serif" font-size="14.00">Result Bitmap</text>
<text xml:space="preserve" text-anchor="middle" x="1342.08" y="-176.7" font-family="Helvetica,sans-Serif" font-size="14.00">(Output Buffer)</text>
</g>
<!-- kernel&#45;&gt;vram_out -->
<g id="edge4" class="edge">
<title>kernel&#45;&gt;vram_out</title>
<path fill="none" stroke="black" d="M1220.47,-190C1220.47,-190 1267.2,-190 1267.2,-190"/>
<polygon fill="black" stroke="black" points="1267.2,-193.5 1277.2,-190 1267.2,-186.5 1267.2,-193.5"/>
</g>
<!-- filter -->
<g id="node8" class="node">
<title>filter</title>
<polygon fill="#ffffff" stroke="#f57c00" points="1650.58,-241 1545.58,-190 1650.58,-139 1755.58,-190 1650.58,-241"/>
<text xml:space="preserve" text-anchor="middle" x="1650.58" y="-184.2" font-family="Helvetica,sans-Serif" font-size="14.00">Candidate?</text>
</g>
<!-- vram_out&#45;&gt;filter -->
<g id="edge9" class="edge">
<title>vram_out&#45;&gt;filter</title>
<path fill="none" stroke="#333333" stroke-width="3" d="M1405.25,-190C1405.25,-190 1530.12,-190 1530.12,-190"/>
<polygon fill="#333333" stroke="#333333" stroke-width="3" points="1530.12,-193.5 1540.12,-190 1530.12,-186.5 1530.12,-193.5"/>
<text xml:space="preserve" text-anchor="middle" x="1475.33" y="-191.55" font-family="Helvetica,sans-Serif" font-size="11.00"> PCIe Bus (D2H)</text>
</g>
<!-- filter&#45;&gt;batcher -->
<g id="edge11" class="edge">
<title>filter&#45;&gt;batcher</title>
<path fill="none" stroke="black" stroke-dasharray="1,5" d="M1650.93,-138.85C1650.93,-133.68 1650.93,-130.29 1650.93,-130.29 1650.93,-130.29 455.93,-130.29 455.93,-130.29 455.93,-130.29 455.93,-145.14 455.93,-145.14"/>
<polygon fill="black" stroke="black" points="452.43,-145.14 455.93,-155.14 459.43,-145.14 452.43,-145.14"/>
<text xml:space="preserve" text-anchor="middle" x="1057.2" y="-72.55" font-family="Helvetica,sans-Serif" font-size="11.00"> No</text>
</g>
<!-- check -->
<g id="node9" class="node">
<title>check</title>
<polygon fill="#ffffff" stroke="#f57c00" points="1953.83,-223 1833.83,-223 1833.83,-157 1953.83,-157 1953.83,-223"/>
<text xml:space="preserve" text-anchor="middle" x="1893.83" y="-191.7" font-family="Helvetica,sans-Serif" font-size="14.00">UnRAR Verify</text>
<text xml:space="preserve" text-anchor="middle" x="1893.83" y="-176.7" font-family="Helvetica,sans-Serif" font-size="14.00">(CPU Check)</text>
</g>
<!-- filter&#45;&gt;check -->
<g id="edge5" class="edge">
<title>filter&#45;&gt;check</title>
<path fill="none" stroke="black" d="M1756.56,-190C1756.56,-190 1822.09,-190 1822.09,-190"/>
<polygon fill="black" stroke="black" points="1822.09,-193.5 1832.09,-190 1822.09,-186.5 1822.09,-193.5"/>
<text xml:space="preserve" text-anchor="middle" x="1794.7" y="-191.55" font-family="Helvetica,sans-Serif" font-size="11.00"> Yes</text>
</g>
<!-- check&#45;&gt;batcher -->
<g id="edge10" class="edge">
<title>check&#45;&gt;batcher</title>
<path fill="none" stroke="#d32f2f" stroke-dasharray="1,5" d="M1893.93,-223.34C1893.93,-237.02 1893.93,-249.71 1893.93,-249.71 1893.93,-249.71 455.93,-249.71 455.93,-249.71 455.93,-249.71 455.93,-234.86 455.93,-234.86"/>
<polygon fill="#d32f2f" stroke="#d32f2f" points="459.43,-234.86 455.93,-224.86 452.43,-234.86 459.43,-234.86"/>
<text xml:space="preserve" text-anchor="middle" x="1157.45" y="-13.55" font-family="Helvetica,sans-Serif" font-size="11.00" fill="#d32f2f"> False Positive</text>
<text xml:space="preserve" text-anchor="middle" x="1157.45" y="-1.55" font-family="Helvetica,sans-Serif" font-size="11.00" fill="#d32f2f">(Retry)</text>
</g>
<!-- success -->
<g id="node10" class="node">
<title>success</title>
<ellipse fill="#2e7d32" stroke="black" cx="2139.88" cy="-190" rx="97.05" ry="97.05"/>
<ellipse fill="none" stroke="black" cx="2139.88" cy="-190" rx="101.05" ry="101.05"/>
<text xml:space="preserve" text-anchor="middle" x="2139.88" y="-191.7" font-family="Helvetica,sans-Serif" font-size="14.00" fill="white">Success</text>
<text xml:space="preserve" text-anchor="middle" x="2139.88" y="-176.7" font-family="Helvetica,sans-Serif" font-size="14.00" fill="white">Password Found</text>
</g>
<!-- check&#45;&gt;success -->
<g id="edge6" class="edge">
<title>check&#45;&gt;success</title>
<path fill="none" stroke="black" d="M1954.02,-190C1954.02,-190 2027.09,-190 2027.09,-190"/>
<polygon fill="black" stroke="black" points="2027.09,-193.5 2037.09,-190 2027.09,-186.5 2027.09,-193.5"/>
<text xml:space="preserve" text-anchor="middle" x="1996.33" y="-191.55" font-family="Helvetica,sans-Serif" font-size="11.00"> Pass</text>
</g>
</g>
</svg>
