<?xml version="1.0" encoding="UTF-8" standalone="no"?>
<!DOCTYPE svg PUBLIC "-//W3C//DTD SVG 1.1//EN"
 "http://www.w3.org/Graphics/SVG/1.1/DTD/svg11.dtd">
<!-- Generated by graphviz version 14.0.4 (20251115.1723)
 -->
<!-- Pages: 1 -->
<svg width="1930pt" height="224pt"
 viewBox="0.00 0.00 1930.00 224.00" xmlns="http://www.w3.org/2000/svg" xmlns:xlink="http://www.w3.org/1999/xlink">
<g id="graph0" class="graph" transform="scale(1 1) rotate(0) translate(4 219.69)">
<polygon fill="white" stroke="none" points="-4,4 -4,-219.69 1925.74,-219.69 1925.74,4 -4,4"/>
<g id="clust1" class="cluster">
<title>cluster_0</title>
<polygon fill="#f5f7fa" stroke="#f5f7fa" points="143.98,-75.69 143.98,-172.69 637.38,-172.69 637.38,-75.69 143.98,-75.69"/>
<text xml:space="preserve" text-anchor="middle" x="390.68" y="-155.39" font-family="Times,serif" font-size="14.00" fill="#555555">🐍 Host Context (Python Control Plane)</text>
</g>
<g id="clust2" class="cluster">
<title>cluster_1</title>
<polygon fill="#e8f5e9" stroke="#e8f5e9" points="732.38,-65.69 732.38,-182.69 1223.53,-182.69 1223.53,-65.69 732.38,-65.69"/>
<text xml:space="preserve" text-anchor="middle" x="977.95" y="-165.39" font-family="Times,serif" font-size="14.00" fill="#2e7d32">⚡ Device Context (CUDA Data Plane)</text>
</g>
<g id="clust3" class="cluster">
<title>cluster_2</title>
<polygon fill="none" stroke="none" points="1318.53,-13.69 1318.53,-207.69 1913.74,-207.69 1913.74,-13.69 1318.53,-13.69"/>
</g>
<!-- start -->
<g id="node1" class="node">
<title>start</title>
<ellipse fill="#333333" stroke="black" cx="57.49" cy="-110.69" rx="57.49" ry="57.49"/>
<text xml:space="preserve" text-anchor="middle" x="57.49" y="-105.67" font-family="Helvetica,sans-Serif" font-size="12.00" fill="white">Start / CLI</text>
</g>
<!-- init -->
<g id="node2" class="node">
<title>init</title>
<polygon fill="#ffffff" stroke="#333333" points="257.28,-137.84 151.98,-137.84 151.98,-83.54 257.28,-83.54 257.28,-137.84"/>
<text xml:space="preserve" text-anchor="middle" x="204.63" y="-112.04" font-family="Helvetica,sans-Serif" font-size="12.00">GPU Manager</text>
<text xml:space="preserve" text-anchor="middle" x="204.63" y="-99.29" font-family="Helvetica,sans-Serif" font-size="12.00">(RAII Context)</text>
</g>
<!-- start&#45;&gt;init -->
<g id="edge5" class="edge">
<title>start&#45;&gt;init</title>
<path fill="none" stroke="black" d="M115.43,-110.69C123.53,-110.69 131.9,-110.69 140.11,-110.69"/>
<polygon fill="black" stroke="black" points="140.06,-114.19 150.06,-110.69 140.06,-107.19 140.06,-114.19"/>
</g>
<!-- batcher -->
<g id="node3" class="node">
<title>batcher</title>
<polygon fill="#ffffff" stroke="#333333" points="428.08,-137.84 294.28,-137.84 294.28,-83.54 428.08,-83.54 428.08,-137.84"/>
<text xml:space="preserve" text-anchor="middle" x="361.18" y="-112.04" font-family="Helvetica,sans-Serif" font-size="12.00">Batch Generator</text>
<text xml:space="preserve" text-anchor="middle" x="361.18" y="-99.29" font-family="Helvetica,sans-Serif" font-size="12.00">(Dynamic Batching)</text>
</g>
<!-- init&#45;&gt;batcher -->
<g id="edge1" class="edge">
<title>init&#45;&gt;batcher</title>
<path fill="none" stroke="#999999" stroke-dasharray="5,2" d="M257.52,-110.69C265.54,-110.69 273.97,-110.69 282.4,-110.69"/>
<polygon fill="#999999" stroke="#999999" points="282.36,-114.19 292.36,-110.69 282.36,-107.19 282.36,-114.19"/>
</g>
<!-- pool -->
<g id="node4" class="node">
<title>pool</title>
<polygon fill="#ffffff" stroke="#333333" points="629.38,-137.84 490.33,-137.84 490.33,-83.54 629.38,-83.54 629.38,-137.84"/>
<text xml:space="preserve" text-anchor="middle" x="559.85" y="-112.04" font-family="Helvetica,sans-Serif" font-size="12.00">ThreadPoolExecutor</text>
<text xml:space="preserve" text-anchor="middle" x="559.85" y="-99.29" font-family="Helvetica,sans-Serif" font-size="12.00">(Task Dispatch)</text>
</g>
<!-- batcher&#45;&gt;pool -->
<g id="edge2" class="edge">
<title>batcher&#45;&gt;pool</title>
<path fill="none" stroke="black" d="M428.49,-110.69C444.61,-110.69 462.03,-110.69 478.73,-110.69"/>
<polygon fill="black" stroke="black" points="478.63,-114.19 488.63,-110.69 478.63,-107.19 478.63,-114.19"/>
<text xml:space="preserve" text-anchor="middle" x="459.2" y="-112.44" font-family="Helvetica,sans-Serif" font-size="10.00">Tasks</text>
</g>
<!-- vram_in -->
<g id="node5" class="node">
<title>vram_in</title>
<path fill="#ffffff" stroke="#2e7d32" d="M853.18,-141.24C853.18,-144.98 827.9,-148.02 796.78,-148.02 765.65,-148.02 740.38,-144.98 740.38,-141.24 740.38,-141.24 740.38,-80.15 740.38,-80.15 740.38,-76.4 765.65,-73.36 796.78,-73.36 827.9,-73.36 853.18,-76.4 853.18,-80.15 853.18,-80.15 853.18,-141.24 853.18,-141.24"/>
<path fill="none" stroke="#2e7d32" d="M853.18,-141.24C853.18,-137.49 827.9,-134.45 796.78,-134.45 765.65,-134.45 740.38,-137.49 740.38,-141.24"/>
<text xml:space="preserve" text-anchor="middle" x="796.78" y="-112.04" font-family="Helvetica,sans-Serif" font-size="12.00">Pinned Memory</text>
<text xml:space="preserve" text-anchor="middle" x="796.78" y="-99.29" font-family="Helvetica,sans-Serif" font-size="12.00">(Input Buffer)</text>
</g>
<!-- pool&#45;&gt;vram_in -->
<g id="edge6" class="edge">
<title>pool&#45;&gt;vram_in</title>
<path fill="none" stroke="#333333" stroke-width="2.5" d="M629.75,-110.69C660.16,-110.69 695.84,-110.69 726.31,-110.69"/>
<polygon fill="#333333" stroke="#333333" stroke-width="2.5" points="726.12,-114.19 736.12,-110.69 726.12,-107.19 726.12,-114.19"/>
<text xml:space="preserve" text-anchor="middle" x="684.88" y="-112.44" font-family="Helvetica,sans-Serif" font-size="10.00"> PCIe Bus (H2D)</text>
</g>
<!-- kernel -->
<g id="node6" class="node">
<title>kernel</title>
<polygon fill="#ffffff" stroke="#2e7d32" points="1072.48,-137.84 963.43,-137.84 963.43,-133.84 959.43,-133.84 959.43,-129.84 963.43,-129.84 963.43,-91.54 959.43,-91.54 959.43,-87.54 963.43,-87.54 963.43,-83.54 1072.48,-83.54 1072.48,-137.84"/>
<polyline fill="none" stroke="#2e7d32" points="963.43,-133.84 967.43,-133.84 967.43,-129.84 963.43,-129.84"/>
<polyline fill="none" stroke="#2e7d32" points="963.43,-91.54 967.43,-91.54 967.43,-87.54 963.43,-87.54"/>
<text xml:space="preserve" text-anchor="middle" x="1017.95" y="-112.04" font-family="Helvetica,sans-Serif" font-size="12.00">CUDA Kernel</text>
<text xml:space="preserve" text-anchor="middle" x="1017.95" y="-99.29" font-family="Helvetica,sans-Serif" font-size="12.00">(Parallel Hash)</text>
</g>
<!-- vram_in&#45;&gt;kernel -->
<g id="edge3" class="edge">
<title>vram_in&#45;&gt;kernel</title>
<path fill="none" stroke="black" d="M853.65,-110.69C883.58,-110.69 920.62,-110.69 951.85,-110.69"/>
<polygon fill="black" stroke="black" points="951.56,-114.19 961.56,-110.69 951.56,-107.19 951.56,-114.19"/>
</g>
<!-- vram_out -->
<g id="node7" class="node">
<title>vram_out</title>
<path fill="#ffffff" stroke="#2e7d32" d="M1215.53,-141.24C1215.53,-144.98 1191.76,-148.02 1162.5,-148.02 1133.24,-148.02 1109.48,-144.98 1109.48,-141.24 1109.48,-141.24 1109.48,-80.15 1109.48,-80.15 1109.48,-76.4 1133.24,-73.36 1162.5,-73.36 1191.76,-73.36 1215.53,-76.4 1215.53,-80.15 1215.53,-80.15 1215.53,-141.24 1215.53,-141.24"/>
<path fill="none" stroke="#2e7d32" d="M1215.53,-141.24C1215.53,-137.49 1191.76,-134.45 1162.5,-134.45 1133.24,-134.45 1109.48,-137.49 1109.48,-141.24"/>
<text xml:space="preserve" text-anchor="middle" x="1162.5" y="-112.04" font-family="Helvetica,sans-Serif" font-size="12.00">Result Bitmap</text>
<text xml:space="preserve" text-anchor="middle" x="1162.5" y="-99.29" font-family="Helvetica,sans-Serif" font-size="12.00">(Output Buffer)</text>
</g>
<!-- kernel&#45;&gt;vram_out -->
<g id="edge4" class="edge">
<title>kernel&#45;&gt;vram_out</title>
<path fill="none" stroke="black" d="M1072.84,-110.69C1081.08,-110.69 1089.65,-110.69 1098.07,-110.69"/>
<polygon fill="black" stroke="black" points="1097.91,-114.19 1107.91,-110.69 1097.91,-107.19 1097.91,-114.19"/>
</g>
<!-- filter -->
<g id="node8" class="node">
<title>filter</title>
<polygon fill="#ffffff" stroke="black" points="1417.58,-152.24 1326.53,-110.69 1417.58,-69.14 1508.63,-110.69 1417.58,-152.24"/>
<text xml:space="preserve" text-anchor="middle" x="1417.58" y="-105.67" font-family="Helvetica,sans-Serif" font-size="12.00">Candidate?</text>
</g>
<!-- vram_out&#45;&gt;filter -->
<g id="edge7" class="edge">
<title>vram_out&#45;&gt;filter</title>
<path fill="none" stroke="#333333" stroke-width="2.5" d="M1215.94,-110.69C1243.74,-110.69 1278.91,-110.69 1312.02,-110.69"/>
<polygon fill="#333333" stroke="#333333" stroke-width="2.5" points="1311.77,-114.19 1321.77,-110.69 1311.77,-107.19 1311.77,-114.19"/>
<text xml:space="preserve" text-anchor="middle" x="1271.03" y="-112.44" font-family="Helvetica,sans-Serif" font-size="10.00"> PCIe Bus (D2H)</text>
</g>
<!-- filter&#45;&gt;batcher -->
<g id="edge9" class="edge">
<title>filter&#45;&gt;batcher</title>
<path fill="none" stroke="black" stroke-dasharray="1,5" d="M1362.68,-93.8C1324.3,-82.57 1271.26,-68.64 1223.53,-61.69 901,-14.76 811.62,-19.96 490.33,-74.69 473.6,-77.54 455.93,-81.72 439.23,-86.23"/>
<polygon fill="black" stroke="black" points="438.57,-82.78 429.87,-88.82 440.44,-89.52 438.57,-82.78"/>
<text xml:space="preserve" text-anchor="middle" x="908.3" y="-32.85" font-family="Helvetica,sans-Serif" font-size="10.00"> No (Next Batch)</text>
</g>
<!-- check -->
<g id="node9" class="node">
<title>check</title>
<polygon fill="#ffffff" stroke="black" points="1667.18,-137.84 1564.13,-137.84 1564.13,-83.54 1667.18,-83.54 1667.18,-137.84"/>
<text xml:space="preserve" text-anchor="middle" x="1615.65" y="-112.04" font-family="Helvetica,sans-Serif" font-size="12.00">UnRAR Verify</text>
<text xml:space="preserve" text-anchor="middle" x="1615.65" y="-99.29" font-family="Helvetica,sans-Serif" font-size="12.00">(CPU Check)</text>
</g>
<!-- filter&#45;&gt;check -->
<g id="edge8" class="edge">
<title>filter&#45;&gt;check</title>
<path fill="none" stroke="black" d="M1509.72,-110.69C1524.26,-110.69 1538.99,-110.69 1552.64,-110.69"/>
<polygon fill="black" stroke="black" points="1552.32,-114.19 1562.32,-110.69 1552.32,-107.19 1552.32,-114.19"/>
<text xml:space="preserve" text-anchor="middle" x="1536.38" y="-112.44" font-family="Helvetica,sans-Serif" font-size="10.00"> Yes</text>
</g>
<!-- check&#45;&gt;batcher -->
<g id="edge11" class="edge">
<title>check&#45;&gt;batcher</title>
<path fill="none" stroke="#d32f2f" stroke-dasharray="1,5" d="M1566.44,-83.08C1548.78,-74.17 1528.3,-65.19 1508.63,-59.69 1176.05,33.23 1077,-4.86 732.38,-26.69 624.61,-33.52 594.35,-18.71 490.33,-47.69 465.48,-54.62 439.67,-66.31 417.78,-77.77"/>
<polygon fill="#d32f2f" stroke="#d32f2f" points="416.19,-74.65 409.02,-82.45 419.49,-80.82 416.19,-74.65"/>
<text xml:space="preserve" text-anchor="middle" x="1017.95" y="-10.22" font-family="Helvetica,sans-Serif" font-size="10.00" fill="#d32f2f"> False Positive</text>
</g>
<!-- success -->
<g id="node10" class="node">
<title>success</title>
<ellipse fill="#2e7d32" stroke="black" cx="1817.21" cy="-110.69" rx="84.53" ry="84.53"/>
<ellipse fill="none" stroke="black" cx="1817.21" cy="-110.69" rx="88.53" ry="88.53"/>
<text xml:space="preserve" text-anchor="middle" x="1817.21" y="-112.04" font-family="Helvetica,sans-Serif" font-size="12.00" fill="white">Success</text>
<text xml:space="preserve" text-anchor="middle" x="1817.21" y="-99.29" font-family="Helvetica,sans-Serif" font-size="12.00" fill="white">Password Found</text>
</g>
<!-- check&#45;&gt;success -->
<g id="edge10" class="edge">
<title>check&#45;&gt;success</title>
<path fill="none" stroke="black" d="M1667.52,-110.69C1682.68,-110.69 1699.84,-110.69 1716.97,-110.69"/>
<polygon fill="black" stroke="black" points="1716.69,-114.19 1726.69,-110.69 1716.69,-107.19 1716.69,-114.19"/>
<text xml:space="preserve" text-anchor="middle" x="1697.93" y="-112.44" font-family="Helvetica,sans-Serif" font-size="10.00"> Pass</text>
</g>
</g>
</svg>
